<svg xmlns="http://www.w3.org/2000/svg" width="1319" height="301" fill="none" viewBox="0 0 1319 301"><path fill="#fff" d="M84.5152 170.2C93.5819 170.2 100.182 168.667 104.315 165.6C108.449 162.533 110.515 158.2 110.515 152.6C110.515 149.267 109.782 146.4 108.315 144C106.982 141.6 104.982 139.467 102.315 137.6C99.7819 135.6 96.6485 133.8 92.9152 132.2C89.1819 130.467 84.9152 128.8 80.1152 127.2C75.3152 125.467 70.6485 123.6 66.1152 121.6C61.7152 119.467 57.7819 116.867 54.3152 113.8C50.9819 110.733 48.2485 107.067 46.1152 102.8C44.1152 98.5333 43.1152 93.4 43.1152 87.4C43.1152 74.8667 47.4485 65.0667 56.1152 58C64.7819 50.8 76.5819 47.2 91.5152 47.2C100.182 47.2 107.849 48.2 114.515 50.2C121.315 52.0667 126.649 54.1333 130.515 56.4L122.715 76.8C118.182 74.2667 113.182 72.3333 107.715 71C102.382 69.6667 96.8485 69 91.1152 69C84.3152 69 78.9819 70.4 75.1152 73.2C71.3819 76 69.5152 79.9333 69.5152 85C69.5152 88.0667 70.1152 90.7333 71.3152 93C72.6485 95.1333 74.4485 97.0667 76.7152 98.8C79.1152 100.533 81.8485 102.133 84.9152 103.6C88.1152 105.067 91.5819 106.467 95.3152 107.8C101.849 110.2 107.649 112.667 112.715 115.2C117.915 117.6 122.249 120.533 125.715 124C129.315 127.333 132.049 131.333 133.915 136C135.782 140.533 136.715 146.067 136.715 152.6C136.715 165.133 132.249 174.867 123.315 181.8C114.515 188.6 101.582 192 84.5152 192C78.7819 192 73.5152 191.6 68.7152 190.8C64.0485 190.133 59.8485 189.267 56.1152 188.2C52.5152 187.133 49.3819 186.067 46.7152 185C44.0485 183.8 41.9152 182.733 40.3152 181.8L47.7152 161.2C51.3152 163.2 56.1819 165.2 62.3152 167.2C68.4485 169.2 75.8485 170.2 84.5152 170.2ZM151.923 137.2C151.923 128 153.256 119.933 155.923 113C158.723 106.067 162.39 100.333 166.923 95.8C171.456 91.1333 176.656 87.6667 182.523 85.4C188.39 83 194.39 81.8 200.523 81.8C214.923 81.8 226.123 86.2667 234.123 95.2C242.256 104.133 246.323 117.467 246.323 135.2C246.323 136.533 246.256 138.067 246.123 139.8C246.123 141.4 246.056 142.867 245.923 144.2H176.923C177.59 152.6 180.523 159.133 185.723 163.8C191.056 168.333 198.723 170.6 208.723 170.6C214.59 170.6 219.923 170.067 224.723 169C229.656 167.933 233.523 166.8 236.323 165.6L239.523 185.4C238.19 186.067 236.323 186.8 233.923 187.6C231.656 188.267 228.99 188.867 225.923 189.4C222.99 190.067 219.79 190.6 216.323 191C212.856 191.4 209.323 191.6 205.723 191.6C196.523 191.6 188.523 190.267 181.723 187.6C174.923 184.8 169.323 181 164.923 176.2C160.523 171.267 157.256 165.533 155.123 159C152.99 152.333 151.923 145.067 151.923 137.2ZM222.123 126.4C222.123 123.067 221.656 119.933 220.723 117C219.79 113.933 218.39 111.333 216.523 109.2C214.79 106.933 212.59 105.2 209.923 104C207.39 102.667 204.323 102 200.723 102C196.99 102 193.723 102.733 190.923 104.2C188.123 105.533 185.723 107.333 183.723 109.6C181.856 111.867 180.39 114.467 179.323 117.4C178.256 120.333 177.523 123.333 177.123 126.4H222.123ZM290.981 134C290.981 144.267 293.181 151.8 297.581 156.6C302.114 161.267 307.914 163.6 314.981 163.6C318.847 163.6 322.447 163.067 325.781 162C329.247 160.933 332.047 159.667 334.181 158.2V104C332.447 103.6 330.314 103.267 327.781 103C325.247 102.6 322.047 102.4 318.181 102.4C309.381 102.4 302.647 105.333 297.981 111.2C293.314 116.933 290.981 124.533 290.981 134ZM358.381 178.4C358.381 195.067 354.114 207.267 345.581 215C337.181 222.733 324.247 226.6 306.781 226.6C300.381 226.6 294.114 226.067 287.981 225C281.981 223.933 276.514 222.533 271.581 220.8L275.981 200.2C280.114 201.933 284.781 203.333 289.981 204.4C295.314 205.467 301.047 206 307.181 206C316.914 206 323.847 204 327.981 200C332.114 196 334.181 190.067 334.181 182.2V178.2C331.781 179.4 328.581 180.6 324.581 181.8C320.714 183 316.247 183.6 311.181 183.6C304.514 183.6 298.381 182.533 292.781 180.4C287.314 178.267 282.581 175.133 278.581 171C274.714 166.867 271.647 161.733 269.381 155.6C267.247 149.333 266.181 142.133 266.181 134C266.181 126.4 267.314 119.4 269.581 113C271.981 106.6 275.381 101.133 279.781 96.6C284.314 92.0667 289.781 88.5333 296.181 86C302.581 83.4667 309.847 82.2 317.981 82.2C325.847 82.2 333.314 82.8 340.381 84C347.447 85.2 353.447 86.4667 358.381 87.8V178.4ZM448.768 134C448.768 123.067 447.368 115.2 444.568 110.4C441.902 105.467 436.835 103 429.368 103C426.702 103 423.768 103.2 420.568 103.6C417.368 104 414.968 104.333 413.368 104.6V189H389.168V87.8C393.835 86.4667 399.902 85.2 407.368 84C414.968 82.8 422.968 82.2 431.368 82.2C438.568 82.2 444.435 83.1333 448.968 85C453.635 86.8667 457.502 89.3333 460.568 92.4C462.035 91.3333 463.902 90.2 466.168 89C468.435 87.8 470.968 86.7333 473.768 85.8C476.568 84.7333 479.502 83.8667 482.568 83.2C485.768 82.5333 488.968 82.2 492.168 82.2C500.302 82.2 506.968 83.4 512.168 85.8C517.502 88.0667 521.635 91.3333 524.568 95.6C527.635 99.7333 529.702 104.8 530.768 110.8C531.968 116.667 532.568 123.133 532.568 130.2V189H508.368V134C508.368 123.067 507.035 115.2 504.368 110.4C501.702 105.467 496.568 103 488.968 103C485.102 103 481.435 103.667 477.968 105C474.502 106.2 471.902 107.4 470.168 108.6C471.235 111.933 471.968 115.467 472.368 119.2C472.768 122.933 472.968 126.933 472.968 131.2V189H448.768V134ZM556.415 137.2C556.415 128 557.749 119.933 560.415 113C563.215 106.067 566.882 100.333 571.415 95.8C575.949 91.1333 581.149 87.6667 587.015 85.4C592.882 83 598.882 81.8 605.015 81.8C619.415 81.8 630.615 86.2667 638.615 95.2C646.749 104.133 650.815 117.467 650.815 135.2C650.815 136.533 650.749 138.067 650.615 139.8C650.615 141.4 650.549 142.867 650.415 144.2H581.415C582.082 152.6 585.015 159.133 590.215 163.8C595.549 168.333 603.215 170.6 613.215 170.6C619.082 170.6 624.415 170.067 629.215 169C634.149 167.933 638.015 166.8 640.815 165.6L644.015 185.4C642.682 186.067 640.815 186.8 638.415 187.6C636.149 188.267 633.482 188.867 630.415 189.4C627.482 190.067 624.282 190.6 620.815 191C617.349 191.4 613.815 191.6 610.215 191.6C601.015 191.6 593.015 190.267 586.215 187.6C579.415 184.8 573.815 181 569.415 176.2C565.015 171.267 561.749 165.533 559.615 159C557.482 152.333 556.415 145.067 556.415 137.2ZM626.615 126.4C626.615 123.067 626.149 119.933 625.215 117C624.282 113.933 622.882 111.333 621.015 109.2C619.282 106.933 617.082 105.2 614.415 104C611.882 102.667 608.815 102 605.215 102C601.482 102 598.215 102.733 595.415 104.2C592.615 105.533 590.215 107.333 588.215 109.6C586.349 111.867 584.882 114.467 583.815 117.4C582.749 120.333 582.015 123.333 581.615 126.4H626.615ZM676.473 87.8C681.14 86.4667 687.206 85.2 694.673 84C702.14 82.8 710.406 82.2 719.473 82.2C728.006 82.2 735.14 83.4 740.873 85.8C746.606 88.0667 751.14 91.3333 754.473 95.6C757.94 99.7333 760.34 104.8 761.673 110.8C763.14 116.667 763.873 123.133 763.873 130.2V189H739.673V134C739.673 128.4 739.273 123.667 738.473 119.8C737.806 115.8 736.606 112.6 734.873 110.2C733.273 107.667 731.006 105.867 728.073 104.8C725.273 103.6 721.806 103 717.673 103C714.606 103 711.406 103.2 708.073 103.6C704.74 104 702.273 104.333 700.673 104.6V189H676.473V87.8ZM792.265 56.8L816.465 52.8V84.4H853.665V104.6H816.465V147.2C816.465 155.6 817.799 161.6 820.465 165.2C823.132 168.8 827.665 170.6 834.065 170.6C838.465 170.6 842.332 170.133 845.665 169.2C849.132 168.267 851.865 167.4 853.865 166.6L857.865 185.8C855.065 187 851.399 188.2 846.865 189.4C842.332 190.733 836.999 191.4 830.865 191.4C823.399 191.4 817.132 190.4 812.065 188.4C807.132 186.4 803.199 183.533 800.265 179.8C797.332 175.933 795.265 171.333 794.065 166C792.865 160.533 792.265 154.333 792.265 147.4V56.8Z"/><path fill="#3936BE" d="M509.58 196.401H531.25L551.49 251.731H551.82L571.84 196.401H593.62V274.281H579.87V211.691H579.65L556 274.281H546.32L523 211.691H522.78V274.281H509.58V196.401ZM607.031 247.661C607.031 243.481 607.765 239.704 609.231 236.331C610.771 232.884 612.825 229.951 615.391 227.531C617.958 225.111 621.001 223.241 624.521 221.921C628.041 220.601 631.781 219.941 635.741 219.941C639.701 219.941 643.441 220.601 646.961 221.921C650.481 223.241 653.525 225.111 656.091 227.531C658.658 229.951 660.675 232.884 662.141 236.331C663.681 239.704 664.451 243.481 664.451 247.661C664.451 251.841 663.681 255.654 662.141 259.101C660.675 262.547 658.658 265.517 656.091 268.011C653.525 270.431 650.481 272.337 646.961 273.731C643.441 275.124 639.701 275.821 635.741 275.821C631.781 275.821 628.041 275.124 624.521 273.731C621.001 272.337 617.958 270.431 615.391 268.011C612.825 265.517 610.771 262.547 609.231 259.101C607.765 255.654 607.031 251.841 607.031 247.661ZM620.451 247.661C620.451 249.714 620.745 251.767 621.331 253.821C621.991 255.874 622.945 257.707 624.191 259.321C625.438 260.934 627.015 262.254 628.921 263.281C630.828 264.307 633.101 264.821 635.741 264.821C638.381 264.821 640.655 264.307 642.561 263.281C644.468 262.254 646.045 260.934 647.291 259.321C648.538 257.707 649.455 255.874 650.041 253.821C650.701 251.767 651.031 249.714 651.031 247.661C651.031 245.607 650.701 243.591 650.041 241.611C649.455 239.557 648.538 237.724 647.291 236.111C646.045 234.497 644.468 233.214 642.561 232.261C640.655 231.234 638.381 230.721 635.741 230.721C633.101 230.721 630.828 231.234 628.921 232.261C627.015 233.214 625.438 234.497 624.191 236.111C622.945 237.724 621.991 239.557 621.331 241.611C620.745 243.591 620.451 245.607 620.451 247.661ZM677.25 221.481H689.79V229.951H690.01C691.183 227.311 693.2 225.001 696.06 223.021C698.993 220.967 702.44 219.941 706.4 219.941C709.847 219.941 712.78 220.564 715.2 221.811C717.693 222.984 719.71 224.561 721.25 226.541C722.863 228.521 724.037 230.794 724.77 233.361C725.503 235.927 725.87 238.567 725.87 241.281V274.281H712.67V245.021C712.67 243.481 712.56 241.867 712.34 240.181C712.12 238.494 711.643 236.991 710.91 235.671C710.177 234.277 709.15 233.141 707.83 232.261C706.583 231.381 704.897 230.941 702.77 230.941C700.643 230.941 698.81 231.381 697.27 232.261C695.73 233.067 694.447 234.131 693.42 235.451C692.467 236.771 691.733 238.311 691.22 240.071C690.707 241.757 690.45 243.481 690.45 245.241V274.281H677.25V221.481ZM778.454 242.601C778.454 240.914 778.197 239.301 777.684 237.761C777.244 236.221 776.51 234.864 775.484 233.691C774.457 232.517 773.137 231.601 771.524 230.941C769.984 230.207 768.15 229.841 766.024 229.841C762.064 229.841 758.69 231.051 755.904 233.471C753.19 235.817 751.687 238.861 751.394 242.601H778.454ZM791.654 248.541C791.654 249.127 791.654 249.714 791.654 250.301C791.654 250.887 791.617 251.474 791.544 252.061H751.394C751.54 253.967 752.017 255.727 752.824 257.341C753.704 258.881 754.84 260.237 756.234 261.411C757.627 262.511 759.204 263.391 760.964 264.051C762.724 264.711 764.557 265.041 766.464 265.041C769.764 265.041 772.55 264.454 774.824 263.281C777.097 262.034 778.967 260.347 780.434 258.221L789.234 265.261C784.027 272.301 776.474 275.821 766.574 275.821C762.467 275.821 758.69 275.197 755.244 273.951C751.797 272.631 748.79 270.797 746.224 268.451C743.73 266.104 741.75 263.244 740.284 259.871C738.89 256.424 738.194 252.537 738.194 248.211C738.194 243.957 738.89 240.107 740.284 236.661C741.75 233.141 743.73 230.171 746.224 227.751C748.717 225.257 751.65 223.351 755.024 222.031C758.47 220.637 762.174 219.941 766.134 219.941C769.8 219.941 773.174 220.564 776.254 221.811C779.407 222.984 782.12 224.781 784.394 227.201C786.667 229.547 788.427 232.517 789.674 236.111C790.994 239.631 791.654 243.774 791.654 248.541ZM796.518 221.481H811.148L825.888 259.871H826.108L839.198 221.481H852.948L827.978 285.611C827.024 288.031 825.998 290.157 824.898 291.991C823.798 293.897 822.478 295.474 820.938 296.721C819.398 298.041 817.564 299.031 815.438 299.691C813.384 300.351 810.891 300.681 807.958 300.681C806.858 300.681 805.721 300.607 804.548 300.461C803.448 300.387 802.311 300.204 801.138 299.911L802.238 288.471C803.118 288.764 803.961 288.947 804.768 289.021C805.648 289.167 806.454 289.241 807.188 289.241C808.581 289.241 809.754 289.057 810.708 288.691C811.661 288.397 812.468 287.884 813.128 287.151C813.788 286.491 814.374 285.647 814.888 284.621C815.401 283.594 815.951 282.384 816.538 280.991L819.178 274.281L796.518 221.481Z"/></svg>